<?xml version="1.0" encoding="UTF-8"?>
<svg xmlns="http://www.w3.org/2000/svg" xmlns:xlink="http://www.w3.org/1999/xlink" viewBox="0 0 512 512" width="512px" height="512px">
<g id="surface19711121">
<path style=" stroke:none;fill-rule:nonzero;fill:rgb(100%,100%,100%);fill-opacity:1;" d="M 256 512 C 114.613281 512 0 397.386719 0 256 C 0 114.613281 114.613281 0 256 0 C 397.386719 0 512 114.613281 512 256 C 512 397.386719 397.386719 512 256 512 Z M 256 512 "/>
<path style=" stroke:none;fill-rule:nonzero;fill:rgb(0%,0%,0%);fill-opacity:1;" d="M 256 2.238281 C 115.855469 2.238281 2.238281 115.855469 2.238281 256 C 2.238281 375.824219 85.316406 476.1875 197 502.792969 C 191.222656 501.414062 185.492188 499.875 179.871094 498.117188 L 179.871094 439.976562 C 179.871094 439.976562 170.355469 443.148438 157.667969 443.148438 C 122.171875 443.148438 107.421875 411.476562 103.742188 395.566406 C 101.507812 385.875 95.671875 376.691406 89.40625 371.082031 C 81.921875 364.40625 78.417969 364.386719 78.367188 362.101562 C 78.269531 357.308594 84.789062 357.503906 87.882812 357.503906 C 103.742188 357.503906 115.769531 374.378906 121.351562 383.105469 C 135.179688 404.644531 150.027344 408.257812 157.667969 408.257812 C 167.183594 408.257812 175.402344 406.832031 181.0625 404.097656 C 183.679688 385.671875 191.875 369.253906 205.246094 357.503906 C 145.742188 345.605469 103.742188 311.476562 103.742188 256 C 103.742188 227.421875 115.210938 201.160156 134.320312 179.949219 C 132.371094 174.417969 129.121094 163.222656 129.121094 144.980469 C 129.121094 132.925781 129.960938 118.128906 135.464844 103.742188 C 135.464844 103.742188 171.652344 103.996094 205.785156 136.324219 C 221.539062 131.734375 238.394531 129.121094 256 129.121094 C 273.605469 129.121094 290.460938 131.734375 306.214844 136.324219 C 340.347656 103.996094 376.535156 103.742188 376.535156 103.742188 C 382.070312 118.128906 382.878906 132.925781 382.878906 144.980469 C 382.878906 164.644531 380.265625 176.113281 378.664062 181.0625 C 397.1875 202.074219 408.257812 227.929688 408.257812 256 C 408.257812 311.476562 366.257812 345.605469 306.753906 357.503906 C 322.640625 371.460938 332.128906 391.789062 332.128906 414.601562 L 332.128906 498.117188 C 326.507812 499.882812 320.785156 501.414062 315 502.792969 C 426.683594 476.1875 509.761719 375.824219 509.761719 256 C 509.761719 115.855469 396.144531 2.238281 256 2.238281 Z M 273.695312 509.078125 C 267.847656 509.488281 261.953125 509.761719 256 509.761719 C 261.953125 509.761719 267.839844 509.476562 273.695312 509.078125 Z M 312.472656 503.378906 C 301.109375 505.964844 289.46875 507.777344 277.578125 508.785156 C 289.46875 507.777344 301.109375 505.953125 312.472656 503.378906 Z M 256 509.761719 C 250.046875 509.761719 244.152344 509.488281 238.304688 509.078125 C 244.160156 509.476562 250.046875 509.761719 256 509.761719 Z M 234.410156 508.785156 C 222.53125 507.777344 210.878906 505.964844 199.527344 503.378906 C 210.890625 505.953125 222.53125 507.777344 234.410156 508.785156 Z M 234.410156 508.785156 "/>
</g>
</svg>
