<?xml version="1.0" encoding="utf-8"?>
<svg width="120px" height="60px" viewBox="0 0 120 60" version="1.1" xmlns:xlink="http://www.w3.org/1999/xlink" xmlns="http://www.w3.org/2000/svg">
  <defs>
    <path d="M0 0L120 0L120 60L0 60L0 0Z" id="path_1" />
    <clipPath id="mask_1">
      <use xlink:href="#path_1" />
    </clipPath>
  </defs>
  <g id="kaggle">
    <path d="M0 0L120 0L120 60L0 60L0 0Z" id="Background" fill="none" fill-rule="evenodd" stroke="none" />
    <g clip-path="url(#mask_1)">
      <path d="M31.5239 38.0165C31.4996 38.1131 31.403 38.1615 31.2345 38.1615L28.0126 38.1615C27.819 38.1615 27.6473 38.077 27.506 37.9077L22.1859 31.14L20.7022 32.5515L20.7022 37.8002C20.7022 38.0417 20.5812 38.1623 20.3401 38.1623L17.8428 38.1623C17.6013 38.1623 17.4807 38.0417 17.4807 37.8002L17.4807 13.8766C17.4807 13.6359 17.6013 13.5112 17.8428 13.5112L20.3405 13.5112C20.5816 13.5112 20.7026 13.6322 20.7026 13.8766L20.7026 28.607L27.0725 22.1649C27.2413 21.9964 27.4102 21.9116 27.5791 21.9116L30.9093 21.9116C31.0539 21.9116 31.1501 21.9725 31.1988 22.0922C31.2475 22.2371 31.2394 22.3455 31.1582 22.4182L24.4299 28.9318L31.4513 37.6544C31.5475 37.7511 31.5718 37.8716 31.5243 38.0165M44.5726 38.161L42.0753 38.161C41.8098 38.161 41.6775 38.0409 41.6775 37.7957L41.6775 37.2883C40.6156 38.0839 39.2525 38.4825 37.5877 38.4825C36.0679 38.4825 34.7523 38.0117 33.6421 37.0715C32.5562 36.1066 32.0135 34.8795 32.0135 33.38C32.0135 31.0154 33.485 29.4108 36.4288 28.5664C37.5869 28.2283 39.3361 27.9393 41.6767 27.6977C41.7498 26.8055 41.5143 26.0456 40.9712 25.4176C40.428 24.7896 39.6377 24.4767 38.6005 24.4767C37.2488 24.4767 35.8739 24.9638 34.4747 25.9242C34.2575 26.0452 34.1004 26.0208 34.0038 25.852L32.7048 24.0062C32.5838 23.8613 32.6204 23.6928 32.8132 23.4996C34.6711 22.2209 36.6013 21.5812 38.6042 21.5812C40.1484 21.5812 41.4636 21.9433 42.5499 22.667C44.1423 23.7289 44.9384 25.4298 44.9384 27.7696L44.9384 37.7949C44.9384 38.0364 44.8174 38.1602 44.573 38.1602M41.6771 30.601C39.3121 30.8425 37.6961 31.1563 36.8274 31.5419C35.6449 32.0485 35.1136 32.7719 35.2346 33.7137C35.3068 34.2446 35.5727 34.6729 36.031 34.9984C36.4893 35.324 37.0202 35.5115 37.6235 35.5594C39.3121 35.68 40.6679 35.2335 41.6771 34.2198L41.6771 30.601ZM59.7261 44.4404C58.4108 45.8031 56.5468 46.4855 54.1343 46.4855C52.7347 46.4855 51.4077 46.1356 50.1534 45.4362C49.8875 45.2669 49.5741 45.0436 49.2124 44.7664C48.8507 44.4891 48.4277 44.1453 47.9459 43.7353C47.7766 43.5908 47.7649 43.4097 47.9053 43.1922L49.6102 41.4873C49.6825 41.4142 49.7791 41.3785 49.8997 41.3785C49.9959 41.3785 50.0807 41.4191 50.153 41.4873C51.5039 42.8382 52.8191 43.5141 54.0978 43.5141C57.0205 43.5141 58.477 41.9939 58.477 38.9538L58.477 37.0719C57.3428 38.0129 55.8352 38.4834 53.9529 38.4834C51.6123 38.4834 49.7783 37.6033 48.4517 35.8415C47.2936 34.2978 46.7143 32.3505 46.7143 30.0148C46.7143 27.7952 47.2692 25.9133 48.3794 24.3723C49.6784 22.5148 51.5283 21.5856 53.9172 21.5856C55.7268 21.5856 57.247 22.0565 58.477 22.9975L58.477 22.2737C58.477 22.0326 58.5976 21.9116 58.8391 21.9116L61.3368 21.9116C61.5775 21.9116 61.7021 22.0326 61.7021 22.2737L61.7021 38.4517C61.7021 41.0805 61.0445 43.0773 59.7293 44.4404M58.4802 27.0503C57.877 25.5065 56.4774 24.734 54.2821 24.734C51.4592 24.734 50.0482 26.4958 50.0482 30.018C50.0482 31.9722 50.5191 33.3966 51.4596 34.2884C52.1591 34.9887 53.0639 35.3382 54.1741 35.3382C56.4417 35.3382 57.8774 34.5661 58.477 33.0219L58.4802 27.0503ZM76.7496 44.4445C75.4344 45.8072 73.5704 46.4895 71.1579 46.4895C69.7574 46.4895 68.4308 46.1396 67.1765 45.4402C66.9106 45.2709 66.5973 45.0477 66.2356 44.7704C65.8739 44.4932 65.4513 44.1494 64.9691 43.7394C64.8002 43.5948 64.788 43.4138 64.9285 43.1962L66.6334 41.4913C66.7056 41.4182 66.8022 41.3825 66.9228 41.3825C67.019 41.3825 67.1039 41.4231 67.1761 41.4913C68.5271 42.8423 69.8419 43.5181 71.121 43.5181C74.0437 43.5181 75.505 41.9979 75.505 38.9579L75.505 37.076C74.3705 38.0169 72.8665 38.4874 70.9809 38.4874C68.6403 38.4874 66.8063 37.6074 65.4797 35.8456C64.3212 34.3018 63.7423 32.3546 63.7423 30.0189C63.7423 27.7992 64.2972 25.9173 65.4067 24.3764C66.7056 22.5189 68.5555 21.5897 70.9444 21.5897C72.754 21.5897 74.2738 22.0606 75.5046 23.0015L75.5046 22.2777C75.5046 22.0366 75.6248 21.9156 75.8667 21.9156L78.364 21.9156C78.6047 21.9156 78.7293 22.0366 78.7293 22.2777L78.7293 38.4557C78.7293 41.0846 78.0717 43.0813 76.7573 44.4445M75.5087 27.0543C74.905 25.5106 73.5054 24.7381 71.3101 24.7381C68.4868 24.7381 67.0754 26.4998 67.0754 30.0221C67.0754 31.9763 67.5463 33.4007 68.4868 34.2925C69.1867 34.9927 70.0915 35.3422 71.2013 35.3422C73.4689 35.3422 74.905 34.5702 75.5042 33.026L75.5042 27.0588L75.5087 27.0543ZM84.2666 38.1606L81.769 38.1606C81.5278 38.1606 81.4036 38.0405 81.4036 37.7953L81.4036 13.8766C81.4036 13.6359 81.5242 13.5112 81.769 13.5112L84.2666 13.5112C84.5074 13.5112 84.632 13.6318 84.632 13.8766L84.632 37.8002C84.632 38.0413 84.511 38.1655 84.2666 38.1655M102.47 30.8181C102.47 31.0597 102.348 31.1802 102.108 31.1802L90.3451 31.1802C90.4896 32.3627 90.9966 33.352 91.8653 34.1435C92.8545 34.9887 94.0971 35.41 95.5934 35.41C96.92 35.41 98.1102 35.0366 99.1761 34.288C99.3937 34.1431 99.5739 34.1431 99.7193 34.288L101.424 36.0254C101.617 36.2191 101.617 36.3908 101.424 36.532C99.6868 37.831 97.6717 38.4862 95.3758 38.4862C92.9146 38.4862 90.8635 37.6662 89.2227 36.0254C87.6306 34.409 86.8342 32.3461 86.8342 29.8366C86.8342 27.472 87.6176 25.4696 89.1865 23.8288C90.6345 22.3329 92.5164 21.5852 94.829 21.5852C97.0243 21.5852 98.87 22.3695 100.367 23.9376C101.91 25.5544 102.622 27.5812 102.502 30.0185L102.47 30.8181ZM97.7286 25.498C96.9086 24.7503 95.9189 24.376 94.7653 24.376C93.6794 24.376 92.7259 24.7381 91.9063 25.4615C91.0867 26.1848 90.5667 27.1266 90.35 28.2847L99.0722 28.2847C99.0479 27.1753 98.6013 26.2457 97.7326 25.498" id="Shape" fill="#20BEFF" fill-rule="evenodd" stroke="none" />
    </g>
  </g>
</svg>